<svg xmlns="http://www.w3.org/2000/svg" viewBox="0 0 64 64" role="img" aria-labelledby="title"><title id="title">Sauti</title><defs><linearGradient id="surface" x1="8" y1="5" x2="56" y2="59" gradientUnits="userSpaceOnUse"><stop stop-color="#42E6D7"/><stop offset="1" stop-color="#17C9B7"/></linearGradient><linearGradient id="letter" x1="21" y1="15" x2="44" y2="49" gradientUnits="userSpaceOnUse"><stop stop-color="#032A37"/><stop offset="1" stop-color="#064255"/></linearGradient></defs><rect x="3" y="3" width="58" height="58" rx="17" fill="url(#surface)"/><path fill="url(#letter)" d="M43.9 20.2c-3-3.2-6.9-4.8-11.7-4.8-7 0-12 3.8-12 9.7 0 5.5 3.7 8.2 10.7 9.8 4.9 1.1 6.5 2.2 6.5 4.4 0 2.3-2.1 3.7-5.5 3.7-4.2 0-7.5-1.6-10.5-4.8l-4.3 4.6c3.7 4.1 8.7 6.2 14.7 6.2 7.6 0 12.5-3.8 12.5-10.2 0-5.4-3.5-8.1-10.7-9.8-5-1.2-6.5-2.1-6.5-4.3 0-2 1.9-3.3 4.9-3.3 3.4 0 6.2 1.2 8.7 3.7l3.2-4.9Z"/></svg>
